<?xml version="1.0" standalone="no"?>
<!DOCTYPE svg PUBLIC "-//W3C//DTD SVG 20010904//EN"
 "http://www.w3.org/TR/2001/REC-SVG-20010904/DTD/svg10.dtd">
<svg version="1.0" xmlns="http://www.w3.org/2000/svg"
 width="153.000000pt" height="153.000000pt" viewBox="0 0 153.000000 153.000000"
 preserveAspectRatio="xMidYMid meet">
<metadata>
Created by potrace 1.11, written by Peter Selinger 2001-2013
</metadata>
<g transform="translate(0.000000,153.000000) scale(0.100000,-0.100000)"
fill="#000000" stroke="none">
<path d="M463 1218 c-6 -7 -74 -123 -152 -256 l-142 -244 149 -256 149 -257
296 -3 297 -2 24 37 c13 21 75 126 137 233 62 107 119 207 128 221 14 26 11
32 -134 283 l-150 256 -296 0 c-225 0 -299 -3 -306 -12z m625 -165 c11 -22 10
-28 -39 -132 -22 -46 -39 -85 -37 -87 2 -1 19 -6 38 -9 77 -13 60 -50 -23 -50
l-52 0 -30 -60 c-16 -33 -33 -62 -37 -65 -3 -3 -10 -18 -13 -33 -4 -15 -11
-30 -16 -33 -19 -11 -40 -80 -37 -119 2 -37 0 -40 -23 -43 -34 -4 -42 15 -44
93 -1 76 -20 114 -70 142 -69 39 -77 34 -128 -69 -25 -51 -53 -117 -62 -145
-10 -29 -21 -53 -26 -53 -14 0 -39 43 -39 68 0 13 23 68 50 121 28 54 50 100
50 104 0 4 -14 7 -31 7 -27 0 -30 2 -19 15 7 8 30 20 51 27 35 10 45 21 104
122 79 134 81 148 23 134 -71 -15 -121 -43 -171 -91 -30 -31 -52 -44 -62 -40
-29 10 -12 45 33 69 24 13 63 34 87 47 50 28 130 57 158 57 29 0 57 -29 57
-58 0 -14 -21 -63 -46 -109 -25 -47 -44 -86 -42 -88 5 -5 217 35 237 44 23 11
91 150 117 239 5 18 32 15 42 -5z"/>
<path d="M702 741 c-43 -12 -61 -25 -62 -43 0 -4 17 -10 38 -14 54 -10 90 -31
111 -65 10 -17 21 -27 24 -22 2 4 24 43 47 86 l42 79 -77 -4 c-42 -2 -97 -9
-123 -17z"/>
</g>
</svg>
